D:\school\WTK\thesis\model\3dpredictsim\Results\batch_windlass\Pog_s1_tmt_bCst_d05_k800_WL30_ig24_act_TTC_GRF.mot
nRows=15
nColumns=19

name D:\school\WTK\thesis\model\3dpredictsim\Results\batch_windlass\Pog_s1_tmt_bCst_d05_k800_WL30_ig24_act_TTC_GRF.mot
datacolumns 19
datarows 15
range 0.0000000000 0.1671660305
endheader
time 	ground_force_vx	ground_force_vy	ground_force_vz	ground_force_px	ground_force_py	ground_force_pz	1_ground_force_vx	1_ground_force_vy	1_ground_force_vz	1_ground_force_px	1_ground_force_py	1_ground_force_pz	ground_torque_x	ground_torque_y	ground_torque_z	1_ground_torque_x	1_ground_torque_y	1_ground_torque_z
        0.0000000000	      -61.7122264197	       42.8811186053	        9.2184335142	        0.1520583735	        0.0000000000	        0.0586286442	       80.0442316173	      351.5721748089	       -3.9675011310	       -0.3610631928	        0.0000000000	       -0.0334368071	        0.0000000000	        0.0000000000	        0.0000000000	        0.0000000000	        0.0000000000	        0.0000000000	
        0.0119404308	     -128.1565955617	      108.5058423220	       24.1328329231	        0.1657367384	        0.0000000000	        0.0572357805	       51.0458895618	      248.6444009826	      -10.2914785284	       -0.3499127441	        0.0000000000	       -0.0285481919	        0.0000000000	        0.0000000000	        0.0000000000	        0.0000000000	        0.0000000000	        0.0000000000	
        0.0238808615	     -128.7880431425	      265.6621051276	       32.0532887836	        0.1795912233	        0.0000000000	        0.0573849079	       34.1312312743	      197.2774126814	      -21.0732423098	       -0.3450215246	        0.0000000000	       -0.0264979617	        0.0000000000	        0.0000000000	        0.0000000000	        0.0000000000	        0.0000000000	        0.0000000000	
        0.0358212923	      -96.6898943126	      605.8332247107	       -9.6405962917	        0.1936765710	        0.0000000000	        0.0591306661	       31.0891415888	      155.8339132230	      -19.2812246081	       -0.3447752649	        0.0000000000	       -0.0264514602	        0.0000000000	        0.0000000000	        0.0000000000	        0.0000000000	        0.0000000000	        0.0000000000	
        0.0477617230	     -118.8349438304	      840.0132297074	      -25.7225377116	        0.2013913282	        0.0000000000	        0.0601952580	       19.4750827134	      104.2054295316	      -13.1570218852	       -0.3448120475	        0.0000000000	       -0.0261783282	        0.0000000000	        0.0000000000	        0.0000000000	        0.0000000000	        0.0000000000	        0.0000000000	
        0.0597021538	     -147.2177674004	      929.6872053550	      -29.8998959957	        0.2093777603	        0.0000000000	        0.0602762045	       -2.8310891848	       45.7293291404	       -7.8440344303	       -0.3466851811	        0.0000000000	       -0.0262233832	        0.0000000000	        0.0000000000	        0.0000000000	        0.0000000000	        0.0000000000	        0.0000000000	
        0.0716425845	     -154.7577604075	      950.5681507933	      -27.9006291945	        0.2188761736	        0.0000000000	        0.0595429580	       -3.3341199171	        3.3243711209	        0.1960707360	        0.0000000000	        0.0000000000	        0.0000000000	        0.0000000000	        0.0000000000	        0.0000000000	        0.0000000000	        0.0000000000	        0.0000000000	
        0.0835830153	     -143.0573730569	      892.7486262963	      -23.3365718915	        0.2267502847	        0.0000000000	        0.0586447438	       -2.3553118027	        1.9107267169	        0.2748163457	        0.0000000000	        0.0000000000	        0.0000000000	        0.0000000000	        0.0000000000	        0.0000000000	        0.0000000000	        0.0000000000	        0.0000000000	
        0.0955234460	     -122.1728327462	      817.2394194946	      -19.5065416943	        0.2312516395	        0.0000000000	        0.0580373234	       -0.4138060950	        0.2991330143	        0.0434426468	        0.0000000000	        0.0000000000	        0.0000000000	        0.0000000000	        0.0000000000	        0.0000000000	        0.0000000000	        0.0000000000	        0.0000000000	
        0.1074638768	     -105.0493549487	      761.5066422521	      -17.9984824898	        0.2350766684	        0.0000000000	        0.0576554080	        0.1680882956	       -0.1136859905	       -0.0139459557	        0.0000000000	        0.0000000000	        0.0000000000	        0.0000000000	        0.0000000000	        0.0000000000	        0.0000000000	        0.0000000000	        0.0000000000	
        0.1194043075	      -91.2814725960	      724.4348949889	      -18.0666749677	        0.2384665718	        0.0000000000	        0.0573855693	       -0.0587362479	        0.0372876940	        0.0040796535	        0.0000000000	        0.0000000000	        0.0000000000	        0.0000000000	        0.0000000000	        0.0000000000	        0.0000000000	        0.0000000000	        0.0000000000	
        0.1313447383	      -78.6863271329	      697.5956630762	      -19.0537715893	        0.2415832222	        0.0000000000	        0.0571944348	       -0.2646095001	        0.1597356286	        0.0150854894	        0.0000000000	        0.0000000000	        0.0000000000	        0.0000000000	        0.0000000000	        0.0000000000	        0.0000000000	        0.0000000000	        0.0000000000	
        0.1432851690	      -66.4039637445	      673.5057627668	      -20.0061519241	        0.2447232250	        0.0000000000	        0.0570558365	       -0.1812632096	        0.1021370724	        0.0110381861	        0.0000000000	        0.0000000000	        0.0000000000	        0.0000000000	        0.0000000000	        0.0000000000	        0.0000000000	        0.0000000000	        0.0000000000	
        0.1552255998	      -55.4173420464	      650.6799861950	      -19.8916749698	        0.2480913294	        0.0000000000	        0.0569501481	       -0.0977577131	        0.0517794326	        0.0061720814	        0.0000000000	        0.0000000000	        0.0000000000	        0.0000000000	        0.0000000000	        0.0000000000	        0.0000000000	        0.0000000000	        0.0000000000	
        0.1671660305	      -45.5242826080	      631.8014087719	      -20.3160277969	        0.2522848405	        0.0000000000	        0.0567817827	       -0.0573298383	        0.0288547518	        0.0036546028	        0.0000000000	        0.0000000000	        0.0000000000	        0.0000000000	        0.0000000000	        0.0000000000	        0.0000000000	        0.0000000000	        0.0000000000	
